<?xml version="1.0" standalone="no"?>
<!DOCTYPE svg PUBLIC "-//W3C//DTD SVG 20010904//EN"
 "http://www.w3.org/TR/2001/REC-SVG-20010904/DTD/svg10.dtd">
<svg version="1.0" xmlns="http://www.w3.org/2000/svg"
 width="500.000000pt" height="500.000000pt" viewBox="0 0 500.000000 500.000000"
 preserveAspectRatio="xMidYMid meet">
<metadata>
Created by potrace 1.11, written by Peter Selinger 2001-2013
</metadata>
<g transform="translate(0.000000,500.000000) scale(0.100000,-0.100000)"
fill="#000000" stroke="none">
<path d="M0 2500 l0 -2500 1045 0 c575 0 1045 3 1045 7 0 12 -73 157 -100 198
-38 58 -57 104 -64 157 -4 26 -11 50 -17 53 -5 4 -9 20 -9 36 0 17 -5 39 -10
49 -7 13 -7 21 0 25 6 4 8 15 5 25 -4 12 -1 18 8 16 16 -2 132 -118 129 -128
-1 -5 5 -8 13 -8 13 0 14 4 5 20 -6 11 -8 20 -5 20 3 0 -12 34 -35 75 -22 42
-40 81 -40 87 0 6 -12 27 -27 47 -16 20 -27 39 -25 44 1 4 -3 7 -9 7 -5 0 -7
5 -4 10 3 6 -1 13 -9 16 -9 3 -16 12 -16 20 0 7 -11 30 -25 50 -14 20 -25 43
-25 51 0 8 -8 27 -19 41 -10 15 -28 61 -40 102 -12 41 -26 86 -32 100 -9 24
-28 111 -69 305 -27 133 -31 165 -20 165 6 0 10 -5 10 -12 0 -6 3 -9 6 -5 6 6
79 -59 79 -71 1 -30 102 -120 152 -136 12 -4 24 -13 27 -21 3 -8 13 -15 21
-15 9 0 13 -4 10 -10 -3 -5 -1 -10 6 -10 29 0 89 -35 84 -48 -3 -10 0 -12 10
-8 9 3 36 -1 61 -10 25 -8 54 -12 64 -9 11 4 20 3 20 -2 0 -4 59 -8 130 -8
105 0 133 3 140 15 6 10 28 15 70 16 47 0 63 5 75 20 8 10 15 14 15 8 0 -17
45 -11 45 5 0 8 6 16 13 19 7 2 10 -2 6 -12 -10 -26 7 -18 44 20 19 20 32 28
28 19 -5 -13 -2 -16 10 -11 8 3 22 6 30 6 8 0 14 6 14 13 0 6 14 20 30 29 17
9 30 22 30 28 0 6 -5 8 -10 5 -5 -3 -10 -2 -10 4 0 15 21 25 29 13 4 -7 21 2
44 23 44 40 44 41 49 17 3 -14 8 -13 31 12 15 16 25 31 22 34 -7 8 16 45 42
65 12 10 23 23 23 29 0 6 23 35 50 65 28 31 61 74 73 96 12 22 28 51 35 64 8
14 16 23 18 20 8 -8 4 -324 -5 -389 -5 -38 -17 -77 -27 -90 -42 -52 -170 -153
-283 -223 -9 -5 -20 -16 -24 -23 -4 -6 -13 -12 -20 -12 -7 0 -18 -9 -24 -19
-16 -26 -144 -87 -218 -104 -76 -18 -108 -34 -166 -86 -48 -42 -77 -109 -65
-148 9 -27 -24 -117 -75 -204 -70 -120 -145 -270 -204 -408 -30 -72 -55 -132
-55 -135 0 -3 650 -6 1445 -6 l1445 0 0 2470 0 2471 -122 -6 c-68 -3 -147 -8
-176 -10 -49 -4 -52 -3 -52 20 0 13 7 31 16 39 14 15 -197 16 -2325 16 l-2341
0 0 -2500z m2365 2468 c14 -6 25 -15 25 -20 0 -5 4 -6 10 -3 5 3 18 1 27 -4
10 -6 14 -11 10 -11 -5 0 -5 -5 -2 -10 4 -7 14 -6 28 2 20 10 21 10 8 -5 -9
-11 -10 -17 -2 -17 6 0 11 -5 11 -11 0 -5 -4 -8 -9 -4 -5 3 -12 1 -16 -5 -4
-6 -10 -8 -15 -5 -9 5 -50 -46 -50 -63 0 -9 -67 -41 -120 -57 -20 -7 -23 -5
-14 6 7 8 14 50 16 94 6 115 29 142 93 113z m665 -22 c0 -6 4 -6 11 1 8 8 22
7 53 -4 65 -24 171 -30 246 -14 150 31 166 32 271 8 50 -11 111 -14 240 -11
342 8 495 6 540 -6 42 -12 54 -15 100 -25 25 -5 38 -15 21 -15 -7 0 -12 -7
-12 -16 0 -8 -5 -25 -12 -37 -7 -12 -13 -28 -14 -35 -1 -6 -12 -32 -24 -57
-12 -25 -23 -51 -24 -57 -2 -7 -9 -26 -15 -43 -7 -16 -22 -55 -32 -85 -11 -30
-24 -63 -30 -72 -5 -10 -9 -27 -9 -38 0 -11 -5 -20 -11 -20 -5 0 -7 -4 -4 -10
3 -5 -2 -24 -12 -42 -9 -18 -17 -42 -18 -52 0 -11 -6 -21 -13 -24 -6 -2 -9 -8
-6 -13 7 -12 -32 -88 -57 -110 -11 -9 -17 -25 -14 -38 3 -14 0 -21 -8 -18 -13
4 -32 -43 -42 -105 -4 -21 -10 -38 -15 -38 -8 0 -72 62 -104 100 -26 30 -66
149 -66 195 0 63 32 136 99 224 85 111 105 142 124 190 12 32 14 47 6 52 -7 4
-10 18 -7 33 5 27 -27 67 -60 73 -35 8 -90 3 -131 -12 -24 -8 -47 -13 -51 -10
-5 3 -18 -5 -29 -17 -20 -21 -21 -21 -22 -2 0 10 -3 13 -6 7 -3 -9 -10 -10
-21 -4 -9 5 -21 10 -27 12 -5 1 -18 4 -27 7 -10 2 -16 7 -14 11 10 15 -51 10
-86 -6 -43 -20 -53 -40 -50 -100 l2 -43 -52 21 c-34 13 -70 19 -106 18 -38 -2
-56 1 -63 12 -7 11 -9 11 -9 1 0 -8 -6 -12 -12 -10 -12 4 -20 0 -51 -28 -7 -6
-24 -14 -37 -18 -14 -4 -20 -4 -15 1 13 10 15 74 3 67 -5 -3 -9 0 -7 7 4 36
-2 59 -17 59 -10 0 -14 6 -11 14 4 9 -3 14 -20 14 -14 0 -28 4 -32 10 -3 5
-41 13 -84 17 -44 4 -84 13 -92 21 -21 22 -41 17 -80 -19 -40 -36 -45 -62 -30
-150 l8 -48 -29 5 c-16 3 -58 10 -94 15 -76 12 -136 29 -105 30 16 1 17 3 6
10 -12 8 -12 13 -3 24 7 8 10 21 6 30 -8 21 -67 48 -96 44 -16 -3 -33 6 -57
30 -23 23 -41 33 -54 29 -13 -3 -17 0 -13 11 3 8 6 19 6 24 0 6 4 8 9 5 5 -3
11 1 14 9 5 12 35 13 184 9 98 -3 199 -7 225 -8 32 -2 45 1 42 9 -3 6 2 12 11
12 8 0 15 -5 15 -11z m1600 -30 c0 -3 -4 -8 -10 -11 -5 -3 -10 -1 -10 4 0 6 5
11 10 11 6 0 10 -2 10 -4z m-40 -26 c0 -5 -4 -10 -9 -10 -6 0 -13 5 -16 10 -3
6 1 10 9 10 9 0 16 -4 16 -10z m-2240 -130 c-8 -5 -19 -10 -25 -10 -5 0 -3 5
5 10 8 5 20 10 25 10 6 0 3 -5 -5 -10z m337 -36 c-3 -3 -12 -4 -19 -1 -8 3 -5
6 6 6 11 1 17 -2 13 -5z m-307 -664 c11 0 20 -5 20 -11 0 -5 4 -8 8 -5 5 3 26
-1 48 -8 54 -19 147 -27 186 -16 21 7 34 6 39 -1 3 -6 9 -10 13 -10 29 4 46
-1 40 -11 -5 -8 3 -9 30 -5 30 5 35 3 27 -7 -8 -10 -4 -12 22 -11 34 2 126
-21 141 -36 6 -5 21 -9 34 -9 13 0 20 -4 17 -10 -3 -5 -1 -11 4 -11 6 -1 16
-3 21 -4 6 -1 15 -3 21 -4 5 0 7 -5 4 -11 -4 -6 11 -10 37 -10 27 0 38 -3 30
-9 -11 -7 -10 -10 3 -15 9 -3 21 -3 27 0 5 3 24 -9 41 -27 23 -23 27 -31 13
-25 -18 6 -19 5 -4 -11 8 -10 18 -27 22 -37 5 -14 10 -16 17 -9 8 8 16 6 28
-6 27 -27 64 -91 52 -91 -17 0 -13 -30 5 -37 11 -4 12 -8 4 -13 -9 -6 -9 -13
-1 -28 6 -11 10 -36 9 -55 -1 -27 -5 -34 -16 -29 -11 4 -13 2 -6 -9 5 -8 14
-33 20 -56 9 -34 8 -49 -4 -73 -12 -25 -13 -33 -2 -43 10 -9 11 -9 6 1 -4 6
-2 12 3 12 6 0 11 -15 11 -33 0 -18 4 -37 9 -42 16 -17 50 -197 60 -315 21
-250 22 -293 7 -365 -23 -111 -27 -145 -16 -145 5 0 15 20 21 45 9 34 16 45
31 45 17 0 19 -5 13 -32 -4 -18 -13 -43 -21 -55 -17 -27 -5 -30 26 -5 17 14
23 31 27 87 2 39 4 83 4 99 -1 15 3 33 8 40 5 6 9 31 10 56 0 25 1 61 2 80 l1
35 8 -33 c10 -43 25 -56 17 -16 -7 37 0 49 20 33 10 -9 13 -4 13 25 0 37 13
48 24 21 9 -26 29 -17 22 9 -3 14 -1 28 4 31 6 4 3 16 -10 32 -11 14 -20 36
-20 48 0 12 -7 44 -15 70 -16 54 -13 64 10 45 14 -12 15 -10 9 15 -5 22 -4 26
7 20 11 -6 12 -5 2 6 -15 15 -17 69 -4 69 14 0 41 -41 41 -62 0 -22 7 -23 26
-3 13 13 13 18 -2 46 -11 22 -18 28 -24 19 -6 -10 -9 -9 -16 1 -4 8 -3 14 5
17 8 3 4 14 -12 36 -28 35 -45 96 -28 96 6 0 11 -8 11 -18 0 -10 6 -26 13 -36
11 -16 13 -10 14 45 1 35 4 80 8 99 4 19 9 54 12 78 3 23 9 42 13 42 9 0 14
-29 25 -145 3 -33 12 -70 20 -82 8 -12 15 -33 15 -45 0 -13 9 -38 20 -56 22
-36 26 -62 9 -62 -7 0 -18 -8 -25 -17 -10 -13 -13 -14 -14 -4 0 9 -7 6 -21
-10 -12 -14 -19 -33 -16 -47 3 -17 -4 -28 -27 -45 -17 -12 -33 -22 -36 -22
-10 0 0 -66 15 -95 9 -17 14 -39 11 -48 -3 -10 -2 -32 3 -50 7 -24 6 -44 -5
-74 -13 -36 -13 -44 0 -56 11 -12 21 -12 45 -4 24 9 41 8 73 -4 23 -8 45 -19
48 -24 10 -16 139 -40 218 -40 47 0 96 7 139 21 58 19 77 21 167 13 129 -10
197 -11 265 -2 49 7 56 5 78 -16 39 -39 40 -100 4 -241 -5 -22 -11 -62 -12
-90 -3 -55 -21 -117 -41 -138 -9 -11 -22 -12 -53 -4 -22 5 -76 9 -120 9 -98
-1 -275 34 -292 59 -17 23 -61 32 -93 19 -19 -8 -39 -9 -63 -2 -38 11 -53 -1
-41 -32 8 -20 -5 -25 -86 -31 -39 -4 -83 -10 -96 -16 -14 -5 -67 -9 -118 -9
-88 0 -94 -1 -118 -27 -15 -16 -31 -40 -37 -54 -11 -31 -7 -132 8 -208 7 -32
8 -82 4 -120 -4 -36 -6 -69 -5 -73 5 -20 -158 -44 -188 -28 -20 11 -21 13 -7
28 14 13 14 19 2 41 -9 19 -11 39 -5 70 4 24 5 56 1 70 -8 28 -4 61 7 61 4 0
6 37 5 83 -2 125 -2 127 -14 127 -5 0 -7 -5 -4 -11 4 -5 0 -24 -8 -42 -9 -18
-21 -51 -29 -74 -7 -24 -16 -43 -20 -43 -5 0 -8 -9 -8 -20 0 -11 -4 -20 -10
-20 -5 0 -10 -8 -10 -17 0 -15 -2 -16 -10 -3 -7 12 -12 12 -29 -4 -11 -10 -27
-16 -35 -13 -9 4 -18 2 -21 -3 -10 -16 -21 -11 -21 9 0 11 3 18 7 15 8 -5 25
44 23 66 -1 8 -2 25 -3 38 -1 24 -21 31 -21 7 0 -8 -2 -15 -4 -15 -2 0 -12 -3
-22 -7 -14 -5 -16 -2 -12 15 4 12 2 22 -3 22 -5 0 -9 -6 -9 -12 0 -7 -9 -24
-20 -38 l-20 -25 0 25 c-1 18 -13 1 -44 -62 -45 -91 -65 -122 -74 -113 -3 3
-11 0 -19 -6 -10 -9 -13 -7 -13 9 0 15 -5 19 -20 15 -11 -3 -20 -12 -20 -20 0
-8 -4 -11 -10 -8 -9 6 -23 -31 -19 -51 1 -5 1 -18 0 -29 l-2 -20 -15 20 c-15
20 -15 20 -30 1 -8 -11 -14 -26 -14 -34 0 -8 -6 -12 -15 -8 -8 3 -14 0 -12 -7
1 -7 -6 -11 -16 -10 -12 0 -16 -4 -13 -12 3 -8 -1 -25 -7 -39 -10 -22 -17 -25
-41 -20 -19 4 -31 2 -37 -7 -7 -12 -9 -12 -9 0 0 11 -5 10 -25 -3 -31 -20 -35
-20 -35 2 0 12 -9 18 -29 19 -24 2 -32 -3 -43 -27 -8 -20 -15 -25 -21 -17 -5
7 -6 3 -2 -10 4 -14 2 -23 -4 -23 -6 0 -11 5 -11 10 0 6 -7 10 -15 10 -8 0
-15 -5 -15 -12 0 -9 -3 -9 -12 0 -16 16 -29 15 -22 -2 4 -11 0 -13 -15 -9 -20
5 -20 6 -4 19 10 7 24 14 31 14 7 0 11 4 8 9 -8 12 3 41 15 41 4 0 6 -7 3 -15
-4 -8 -1 -15 5 -15 6 0 11 4 11 9 0 5 8 7 19 4 10 -3 22 0 26 7 4 7 0 10 -11
8 -16 -2 -18 3 -16 31 3 32 3 33 -13 18 -9 -10 -20 -17 -24 -17 -13 0 -5 52
10 61 12 8 11 10 -6 9 -3 0 -17 13 -32 30 -16 19 -31 29 -41 25 -8 -3 -23 2
-33 11 -11 10 -19 12 -19 6 0 -7 -13 -11 -32 -9 -24 2 -38 -3 -51 -20 -10 -13
-24 -23 -32 -23 -7 0 -18 -7 -25 -15 -15 -18 1 -20 18 -3 6 6 15 9 19 5 3 -4
0 -13 -8 -20 -8 -6 -21 -21 -29 -32 -14 -19 -14 -19 6 -3 16 14 23 15 33 5 9
-9 14 -9 21 3 7 11 10 11 10 2 0 -7 -8 -16 -17 -19 -21 -8 -72 -60 -66 -67 3
-2 18 10 34 27 15 18 29 27 29 21 0 -6 -7 -17 -15 -24 -8 -7 -15 -17 -15 -23
0 -5 9 -2 20 8 12 11 20 13 20 6 0 -7 5 -9 12 -5 7 5 9 0 6 -14 -4 -15 -2 -19
9 -15 8 3 12 13 9 22 -4 11 -2 10 9 -3 17 -22 18 -61 4 -91 -7 -15 -8 -10 -5
20 3 22 2 32 0 22 -3 -9 -10 -15 -15 -12 -5 3 -6 0 -3 -8 3 -8 0 -18 -7 -23
-8 -4 -10 -3 -5 4 4 7 3 12 -3 12 -5 0 -14 -6 -18 -13 -10 -16 -39 -28 -47
-20 -3 4 1 14 10 24 18 20 10 41 -14 37 -10 -2 -21 7 -27 20 -14 31 -27 28
-19 -5 4 -22 3 -25 -5 -13 -10 13 -13 13 -25 -2 -7 -10 -17 -18 -21 -18 -4 0
-2 7 5 15 20 24 7 26 -34 6 -20 -11 -32 -14 -26 -6 13 15 3 45 -16 45 -7 0
-20 -10 -28 -22 l-16 -22 0 21 c0 16 -4 21 -15 17 -8 -4 -21 -1 -29 5 -7 6
-15 10 -17 8 -2 -1 7 8 21 20 31 26 23 39 -11 15 -13 -9 -29 -17 -34 -18 -17
-3 -15 34 2 40 11 5 14 2 9 -11 -5 -13 -4 -15 4 -7 6 6 13 22 15 36 4 23 2 24
-28 20 -29 -5 -31 -4 -17 13 8 9 26 22 40 27 14 6 20 12 13 15 -7 3 -26 -5
-43 -17 -16 -12 -30 -17 -30 -12 0 6 12 19 26 29 l25 19 -43 -3 -43 -3 33 17
c17 9 32 20 32 24 0 15 -22 21 -33 10 -15 -15 -40 -14 -32 2 4 6 -9 -5 -27
-26 -31 -35 -65 -55 -38 -22 10 12 10 15 -1 15 -11 0 -11 2 1 11 12 8 12 10
-5 8 -11 -1 -27 -1 -35 0 -13 1 -13 2 0 11 8 5 11 12 8 16 -4 3 -21 -4 -37
-16 -37 -26 -43 -8 -11 33 17 21 18 26 5 31 -15 5 -35 -27 -35 -55 0 -5 -6 -4
-14 3 -8 7 -12 16 -10 20 2 3 0 18 -6 32 -5 14 -5 28 -1 31 5 3 12 -2 15 -11
5 -14 8 -14 21 0 8 8 15 21 15 29 0 8 9 26 20 40 28 35 25 45 -5 17 -14 -13
-25 -21 -25 -18 0 4 -3 13 -6 22 -4 12 0 16 15 16 23 0 26 7 12 28 -6 11 -13
7 -30 -14 -25 -32 -28 -24 -5 12 9 13 14 27 11 30 -10 10 -36 -41 -42 -81 l-6
-40 19 24 19 23 -5 -32 c-3 -23 -1 -31 7 -26 6 4 11 2 11 -5 0 -7 -9 -9 -22
-5 -13 3 -29 6 -37 6 -8 0 -11 7 -8 20 3 11 1 20 -4 20 -5 0 -9 -5 -9 -12 0
-6 -3 -8 -7 -5 -3 4 4 18 16 31 13 14 20 29 17 35 -4 5 -2 12 4 16 17 10 32
45 20 45 -6 0 -20 -20 -31 -45 -11 -24 -23 -46 -28 -49 -14 -9 -9 28 6 46 8 9
12 22 8 27 -3 6 -1 11 4 11 6 0 11 5 11 12 0 6 8 20 17 30 16 18 16 18 -1 12
-16 -6 -17 -3 -11 17 5 18 4 20 -4 9 -6 -8 -8 -23 -5 -32 4 -13 1 -16 -9 -12
-8 3 -18 0 -23 -7 -5 -9 -2 -10 10 -6 12 5 16 3 13 -5 -2 -7 -10 -12 -16 -10
-14 3 -15 -15 0 -20 5 -2 0 -13 -13 -25 l-23 -22 1 57 c1 73 -5 96 -20 83 -9
-7 -15 -1 -23 20 -6 16 -7 27 -2 23 5 -3 9 0 9 6 0 6 -6 13 -14 16 -11 4 -13
12 -5 31 12 33 12 36 -8 28 -15 -5 -16 -4 -5 6 14 15 16 33 2 24 -6 -4 -7 1
-3 11 5 13 2 15 -18 9 -23 -7 -24 -7 -6 13 10 11 14 21 8 23 -9 3 -38 145 -58
284 -10 71 -4 199 17 357 11 84 20 168 20 186 0 17 5 32 10 32 6 0 10 6 9 13
-6 34 28 142 52 168 14 16 24 31 20 34 -3 3 0 9 6 13 10 6 19 69 27 190 2 17
-2 32 -7 32 -5 0 -4 7 3 15 6 8 9 23 5 34 -3 10 -1 22 5 26 6 3 8 10 5 15 -3
5 1 23 10 39 8 17 15 41 15 54 0 13 9 32 20 42 11 10 17 22 14 26 -3 5 3 6 13
2 10 -3 15 -3 11 2 -9 9 16 35 34 35 10 0 9 3 -2 10 -17 11 -17 11 24 16 16 2
33 9 37 15 6 10 11 10 25 -2 16 -12 17 -12 11 4 -4 10 -2 17 5 17 6 0 20 -8
31 -17 19 -17 19 -17 13 5 -7 22 7 31 19 12 3 -5 13 -10 21 -10 8 0 13 4 10 9
-7 11 12 19 41 16 14 -1 25 5 29 17 4 14 10 16 22 9 12 -7 26 -4 48 10 27 17
33 17 38 4 5 -15 31 -16 53 -2 9 6 11 3 7 -7 -7 -19 5 -20 43 -5 48 20 73 20
66 1 -5 -13 0 -11 19 6 18 16 41 24 79 27 30 2 55 9 58 16 2 8 7 6 13 -5 5 -9
18 -16 28 -16z m1510 -182 c0 -4 6 -5 14 -2 23 9 103 -78 116 -125 6 -23 15
-41 20 -41 6 0 10 -10 10 -23 0 -33 -29 -125 -41 -133 -7 -4 -9 0 -5 14 7 20
-9 33 -46 37 -27 3 -58 35 -58 60 0 12 -10 32 -22 45 -19 20 -24 38 -26 100
-4 71 -3 76 17 76 12 0 21 -4 21 -8z m-191 -300 c1 -5 -3 -8 -9 -8 -5 0 -10
12 -9 28 0 24 1 25 9 7 5 -11 9 -23 9 -27z m-89 -20 c-1 -18 3 -62 8 -98 10
-67 3 -106 -14 -79 -5 8 -10 37 -11 64 -1 28 -2 57 -3 65 0 13 2 34 9 73 3 21
12 3 11 -25z m-2728 -235 c35 -37 54 -88 36 -99 -4 -3 -6 -9 -4 -13 3 -4 -17
-21 -43 -39 -50 -32 -87 -34 -105 -4 -7 12 -10 12 -17 1 -20 -34 -30 30 -13
87 17 57 34 82 64 93 39 15 44 13 82 -26z m245 -5 c-2 -7 0 -21 5 -30 5 -10 6
-40 2 -68 -5 -38 -11 -50 -24 -50 -21 0 -36 17 -45 50 -4 19 2 36 27 68 33 43
43 51 35 30z m2543 -349 c0 -17 -4 -28 -10 -24 -5 3 -8 16 -6 28 6 28 5 27 11
27 3 0 5 -14 5 -31z m-2446 -144 c9 -19 19 -66 20 -103 4 -77 26 -141 68 -194
16 -21 28 -49 28 -65 0 -15 2 -49 5 -75 7 -54 -5 -67 -41 -43 -35 23 -64 74
-64 115 0 19 -7 60 -15 90 -8 30 -15 82 -15 115 0 33 -7 87 -15 120 -15 64
-20 167 -7 179 4 4 10 -17 13 -48 3 -30 14 -71 23 -91z m2356 77 c0 -21 -5
-28 -20 -29 -23 -2 -24 4 -8 39 15 32 28 27 28 -10z m-2644 -263 c10 -17 -23
-46 -37 -32 -7 7 -9 19 -6 27 7 18 33 21 43 5z m398 -51 c3 -13 6 -32 6 -42 0
-29 -17 -7 -25 32 -7 36 9 45 19 10z m-764 -424 c0 -21 -17 -17 -23 5 -3 14
-1 18 9 14 8 -3 14 -11 14 -19z m93 -225 c51 -26 117 -87 117 -108 0 -9 -7
-27 -16 -39 -14 -21 -17 -21 -44 -7 -16 8 -35 15 -43 15 -35 0 -123 51 -146
85 l-24 36 23 24 c19 20 29 23 59 19 20 -3 53 -15 74 -25z m3472 3 c33 -5 71
-15 85 -23 42 -23 100 -81 100 -99 0 -10 18 -34 39 -53 22 -19 37 -38 34 -40
-2 -3 0 -8 6 -12 6 -3 11 0 11 8 0 8 20 -6 45 -31 45 -45 53 -68 39 -119 -3
-12 -19 -26 -35 -32 -16 -5 -29 -15 -29 -21 0 -6 -4 -9 -9 -6 -19 12 -59 -19
-64 -49 -6 -37 7 -46 58 -43 34 3 40 6 39 26 -1 24 21 30 29 8 4 -9 14 -12 29
-9 20 5 37 16 93 62 6 4 32 10 58 13 43 5 49 3 65 -21 30 -43 26 -79 -13 -122
-19 -22 -35 -47 -36 -57 0 -9 -3 -73 -5 -142 -2 -69 -7 -132 -10 -140 -3 -8
-8 -33 -11 -55 -2 -21 -6 -42 -8 -45 -2 -4 3 -26 11 -49 8 -24 13 -46 10 -48
-6 -6 -38 11 -101 52 -27 18 -95 58 -150 88 -130 73 -200 119 -201 135 -4 37
-4 37 -12 24 -7 -10 -14 -9 -38 2 -30 15 -168 46 -204 46 -17 0 -29 18 -61 88
-63 136 -72 153 -108 217 -19 33 -49 91 -68 129 -35 71 -35 72 5 114 6 7 12
20 12 27 0 8 8 16 18 20 9 3 31 25 47 47 17 23 57 60 90 83 57 41 63 43 120
39 33 -2 87 -8 120 -12z m-1850 -242 c-3 -5 -11 -10 -16 -10 -6 0 -7 5 -4 10
3 6 11 10 16 10 6 0 7 -4 4 -10z m-550 -30 c-3 -5 -11 -10 -16 -10 -6 0 -7 5
-4 10 3 6 11 10 16 10 6 0 7 -4 4 -10z m656 -37 c-8 -15 -10 -15 -11 -2 0 17
10 32 18 25 2 -3 -1 -13 -7 -23z m-108 3 c4 -10 1 -13 -8 -9 -8 3 -12 9 -9 14
7 12 11 11 17 -5z m74 -18 c-3 -8 -6 -5 -6 6 -1 11 2 17 5 13 3 -3 4 -12 1
-19z m-79 -39 c-3 -8 -7 -3 -11 10 -4 17 -3 21 5 13 5 -5 8 -16 6 -23z m242
-11 c0 -18 -2 -20 -9 -8 -6 8 -7 18 -5 22 9 14 14 9 14 -14z m-522 -22 c-2 -1
-11 -7 -20 -14 -14 -11 -16 -10 -11 7 3 12 11 17 19 14 8 -3 14 -6 12 -7z m99
-58 c-3 -8 -6 -5 -6 6 -1 11 2 17 5 13 3 -3 4 -12 1 -19z m363 2 c0 -5 -4 -10
-10 -10 -5 0 -10 5 -10 10 0 6 5 10 10 10 6 0 10 -4 10 -10z m-810 -140 c0
-30 -195 -170 -237 -170 -10 0 -24 -10 -32 -21 -11 -18 -15 -19 -23 -8 -7 11
-11 11 -15 2 -4 -10 -10 -10 -31 0 -15 7 -34 12 -42 11 -8 -1 -20 -2 -26 -3
-7 -1 -11 -15 -9 -33 2 -23 7 -32 18 -30 9 1 18 -2 21 -7 3 -5 -2 -8 -12 -7
-13 1 -17 -7 -18 -37 -1 -33 1 -36 15 -25 14 11 14 11 4 -3 -15 -19 -80 -55
-87 -48 -3 2 -1 22 4 44 5 21 5 46 0 55 -5 9 -4 23 1 33 7 12 6 17 -2 17 -6 0
-9 8 -6 20 3 11 1 18 -4 14 -5 -3 -9 0 -9 7 0 15 -21 31 -95 73 -46 26 -72 34
-115 35 -78 2 -91 5 -102 25 -9 15 -7 17 10 12 11 -4 23 -2 27 4 4 6 26 11 49
10 22 -1 44 -1 49 0 35 11 222 20 377 19 74 0 142 0 150 0 26 0 115 13 119 17
8 8 21 4 21 -6z m-860 -60 c0 -5 -2 -10 -4 -10 -3 0 -8 5 -11 10 -3 6 -1 10 4
10 6 0 11 -4 11 -10z m44 -6 c3 -8 2 -12 -4 -9 -6 3 -10 10 -10 16 0 14 7 11
14 -7z m501 -204 c-3 -5 -11 -10 -16 -10 -6 0 -7 5 -4 10 3 6 11 10 16 10 6 0
7 -4 4 -10z m-16 -280 c0 -11 -3 -10 -14 4 -8 11 -15 29 -15 40 1 19 2 19 15
-4 8 -14 14 -32 14 -40z m1654 -139 c25 -10 42 -47 26 -57 -5 -3 -9 2 -9 10 0
9 -4 16 -10 16 -5 0 -10 -12 -10 -26 0 -14 4 -23 10 -19 6 3 10 -1 10 -9 0
-25 -66 -21 -80 3 -16 31 -12 59 12 75 26 19 21 18 51 7z m-1448 -62 c9 -27
-8 -45 -24 -26 -12 15 -5 47 9 47 5 0 12 -9 15 -21z"/>
<path d="M1810 3959 c0 -5 5 -7 10 -4 6 3 10 8 10 11 0 2 -4 4 -10 4 -5 0 -10
-5 -10 -11z"/>
<path d="M3256 3715 c4 -8 10 -15 15 -15 4 0 6 7 3 15 -4 8 -10 15 -15 15 -4
0 -6 -7 -3 -15z"/>
<path d="M1685 3250 c-3 -5 -16 -10 -29 -10 -27 0 -79 -24 -97 -46 -7 -8 -26
-23 -43 -32 l-31 -16 35 -7 c20 -4 26 -7 14 -8 -12 0 -24 -8 -27 -15 -4 -11
-1 -13 11 -10 13 4 12 1 -4 -13 -21 -19 -21 -19 30 -17 83 2 88 3 80 15 -4 8
0 9 15 4 12 -3 21 -2 21 3 0 6 -4 12 -10 14 -13 4 96 11 175 12 89 0 135 -11
135 -33 0 -16 -12 -19 -92 -25 -51 -4 -111 -12 -133 -17 -58 -15 -125 -50
-125 -66 0 -7 -6 -13 -12 -13 -7 -1 -2 -7 12 -14 15 -8 56 -13 98 -13 42 0 78
-5 85 -12 15 -15 90 -14 106 2 11 10 13 9 9 -3 -4 -10 2 -15 18 -16 25 -2 33
11 12 19 -7 2 -1 4 15 4 15 0 27 -4 27 -9 0 -5 5 -6 11 -2 8 4 7 9 -2 15 -11
6 -11 11 -1 21 6 6 12 20 12 30 0 10 5 18 10 18 6 0 10 -4 10 -9 0 -5 14 -14
30 -20 37 -13 39 -31 3 -31 -48 0 -11 -17 50 -23 62 -6 70 2 40 36 -17 19 -17
20 0 14 18 -7 24 8 7 18 -6 4 -8 11 -4 16 7 12 -18 33 -71 60 -28 13 -32 18
-15 15 14 -3 42 -8 63 -12 24 -4 37 -3 35 4 -2 5 7 19 20 30 14 13 19 23 12
27 -6 3 -8 10 -5 15 6 9 -60 62 -68 54 -3 -3 -20 2 -39 12 -39 20 -78 25 -210
27 -54 1 -98 5 -98 9 0 12 -78 10 -85 -2z m465 -75 c20 -24 6 -28 -15 -5 -10
11 -13 20 -8 20 6 0 16 -7 23 -15z m-557 -82 c-7 -2 -21 -2 -30 0 -10 3 -4 5
12 5 17 0 24 -2 18 -5z m407 -7 c0 -3 -4 -8 -10 -11 -5 -3 -10 -1 -10 4 0 6 5
11 10 11 6 0 10 -2 10 -4z m-30 -76 c0 -5 -4 -10 -10 -10 -5 0 -10 5 -10 10 0
6 5 10 10 10 6 0 10 -4 10 -10z m-80 -10 c0 -5 -4 -10 -10 -10 -5 0 -10 5 -10
10 0 6 5 10 10 10 6 0 10 -4 10 -10z m-65 -48 c-2 -2 -13 2 -25 8 -18 9 -19
14 -9 26 11 13 14 12 25 -8 7 -13 11 -24 9 -26z m285 -2 c0 -5 -4 -10 -10 -10
-5 0 -10 5 -10 10 0 6 5 10 10 10 6 0 10 -4 10 -10z"/>
<path d="M3710 3180 c0 -5 5 -10 11 -10 5 0 7 5 4 10 -3 6 -8 10 -11 10 -2 0
-4 -4 -4 -10z"/>
<path d="M3027 3143 c-2 -1 -59 -4 -128 -6 -121 -5 -150 -11 -215 -50 -12 -7
-20 -21 -19 -35 1 -12 -1 -22 -4 -22 -3 0 -19 -16 -35 -36 l-29 -36 29 -24
c19 -17 31 -21 38 -14 17 17 27 11 16 -10 -14 -26 -10 -27 105 -35 61 -4 96
-12 108 -22 9 -9 17 -11 17 -6 0 6 9 13 19 16 13 3 18 1 15 -8 -4 -10 4 -13
28 -11 18 1 45 -2 61 -5 15 -4 27 -4 27 1 0 13 32 0 52 -21 16 -16 21 -16 45
-4 16 8 33 15 39 15 10 0 29 30 22 34 -2 1 -22 18 -45 38 -40 35 -81 51 -221
88 -26 7 -40 15 -36 22 9 14 149 5 189 -12 17 -7 34 -12 38 -11 4 1 18 -5 30
-14 12 -8 16 -15 9 -15 -6 0 -12 -4 -12 -10 0 -5 11 -10 24 -10 14 0 28 5 31
10 3 6 17 10 30 10 35 0 54 10 48 26 -3 8 -10 11 -16 7 -6 -3 -7 -1 -3 5 4 7
-2 22 -13 34 -12 12 -21 28 -21 35 0 8 -5 11 -10 8 -6 -3 -13 1 -16 9 -3 9
-14 16 -23 16 -9 0 -26 7 -37 15 -12 8 -24 12 -27 8 -4 -3 -18 2 -31 11 -20
13 -70 19 -79 9z m-197 -220 l0 -34 -50 4 c-45 4 -71 12 -59 20 32 20 83 44
95 44 9 0 14 -11 14 -34z m130 17 c0 -5 -4 -10 -10 -10 -5 0 -10 5 -10 10 0 6
5 10 10 10 6 0 10 -4 10 -10z m-72 -11 c-2 -6 -8 -10 -13 -10 -5 0 -11 4 -13
10 -2 6 4 11 13 11 9 0 15 -5 13 -11z"/>
<path d="M2690 2457 c0 -9 -2 -22 -5 -29 -4 -10 2 -13 22 -12 16 1 33 3 40 3
17 1 5 28 -15 35 -9 3 -23 9 -29 12 -8 3 -13 -1 -13 -9z"/>
<path d="M2130 2410 c-17 -11 -12 -12 42 -14 42 -1 50 8 16 18 -31 8 -41 7
-58 -4z"/>
<path d="M2785 2400 c18 -20 62 -29 50 -10 -3 6 -15 10 -26 10 -10 0 -19 5
-19 10 0 6 -5 10 -12 10 -6 0 -3 -9 7 -20z"/>
<path d="M2230 2396 c0 -3 9 -10 20 -16 11 -6 20 -8 20 -6 0 3 -9 10 -20 16
-11 6 -20 8 -20 6z"/>
<path d="M2579 2396 c-3 -3 -24 -6 -47 -7 -23 -2 -42 -7 -42 -11 0 -4 -6 -8
-13 -8 -8 0 -22 -9 -32 -20 -10 -11 -28 -20 -39 -20 -12 0 -28 -5 -36 -11 -11
-8 1 -9 44 -5 42 5 67 14 88 31 34 29 44 30 64 10 14 -13 19 -13 47 1 29 16
30 17 12 30 -19 14 -38 18 -46 10z"/>
<path d="M3377 2353 c-2 -16 -14 -64 -26 -107 -14 -54 -18 -83 -11 -90 5 -5
10 -18 10 -28 0 -10 5 -18 10 -18 6 0 10 14 10 30 0 55 12 80 40 80 26 0 26
17 0 25 -21 7 -28 52 -11 71 4 5 11 21 15 37 5 22 3 27 -13 27 -13 0 -20 -9
-24 -27z"/>
<path d="M1476 2174 c-9 -24 -2 -26 12 -4 7 11 8 20 3 20 -5 0 -12 -7 -15 -16z"/>
<path d="M1830 2163 c0 -26 7 -33 81 -85 60 -43 65 -49 61 -77 -4 -26 -1 -31
16 -31 11 0 22 7 26 15 7 19 49 13 72 -9 23 -24 45 -34 90 -40 32 -5 44 -3 55
10 13 16 12 16 -8 6 -25 -14 -64 -5 -41 9 9 6 4 9 -15 9 -25 0 -27 3 -21 28
l7 27 -26 -24 c-25 -23 -47 -22 -47 3 0 8 -12 16 -27 20 -25 5 -73 62 -73 85
0 5 19 8 43 8 23 0 97 1 163 3 67 1 127 0 133 -4 10 -7 40 -9 199 -19 23 -1
47 -8 51 -16 5 -8 16 -11 28 -7 34 11 54 -3 47 -33 -4 -14 -12 -32 -20 -40
-18 -20 -82 -43 -121 -45 -18 -1 -37 -6 -42 -11 -13 -13 90 -6 106 7 8 7 21 2
40 -16 33 -31 48 -34 31 -6 -7 11 -16 20 -21 20 -4 0 -3 9 4 21 8 15 18 20 35
16 15 -2 24 0 24 8 0 7 12 11 30 10 16 -1 27 2 25 6 -6 8 60 49 79 49 16 0 51
38 43 46 -3 3 -53 8 -112 10 -59 2 -110 6 -113 8 -4 2 -47 7 -97 11 -49 4 -94
10 -99 12 -4 3 -12 -1 -17 -8 -6 -9 -12 -10 -16 -4 -5 6 -35 10 -68 10 -33 0
-66 4 -73 9 -16 11 -105 1 -110 -13 -5 -15 -47 -14 -64 2 -19 17 -31 19 -139
22 -53 1 -102 6 -108 9 -6 4 -11 0 -11 -11z m180 -157 c0 -3 -4 -8 -10 -11 -5
-3 -10 -1 -10 4 0 6 5 11 10 11 6 0 10 -2 10 -4z"/>
<path d="M3203 2040 c3 -13 0 -20 -9 -20 -8 0 -11 -6 -8 -15 3 -8 0 -17 -8
-20 -14 -6 -13 -85 2 -85 4 0 15 28 23 63 8 34 18 70 22 80 5 12 2 17 -10 17
-12 0 -16 -6 -12 -20z"/>
<path d="M1739 1857 c-6 -15 -4 -49 3 -59 7 -10 8 -9 5 2 -2 8 2 22 10 31 12
14 12 17 -2 22 -8 4 -15 5 -16 4z"/>
<path d="M1657 1823 c-4 -3 -7 -11 -7 -17 0 -6 5 -5 12 2 6 6 9 14 7 17 -3 3
-9 2 -12 -2z"/>
<path d="M2795 1750 c3 -5 8 -10 11 -10 2 0 4 5 4 10 0 6 -5 10 -11 10 -5 0
-7 -4 -4 -10z"/>
<path d="M2186 1544 c-5 -14 -4 -15 9 -4 17 14 19 20 6 20 -5 0 -12 -7 -15
-16z"/>
</g>
</svg>
